<svg xmlns="http://www.w3.org/2000/svg" width="200" height="200" viewBox="0 0 200 200"><path fill="#cdc1ea" d="M100 16L100 58L79 58ZM142 58L100 58L100 37ZM100 184L100 142L121 142ZM58 142L100 142L100 163ZM58 58L58 100L37 100ZM184 100L142 100L142 79ZM142 142L142 100L163 100ZM16 100L58 100L58 121Z"/><path fill="#9c84d6" d="M58 37L37 58L16 37L37 16ZM163 58L142 37L163 16L184 37ZM142 163L163 142L184 163L163 184ZM37 142L58 163L37 184L16 163Z"/><path fill="#5b5b5b" d="M58 58L100 58L100 87.4L74.8 74.8L87.4 100L58 100ZM142 58L142 100L112.6 100L125.2 74.8L100 87.4L100 58ZM142 142L100 142L100 112.6L125.2 125.2L112.6 100L142 100ZM58 142L58 100L87.4 100L74.8 125.2L100 112.6L100 142Z"/></svg>